<?xml version="1.0" standalone="no"?>
<!DOCTYPE svg PUBLIC "-//W3C//DTD SVG 20010904//EN"
 "http://www.w3.org/TR/2001/REC-SVG-20010904/DTD/svg10.dtd">
<svg version="1.0" xmlns="http://www.w3.org/2000/svg"
 width="640.000000pt" height="640.000000pt" viewBox="0 0 640.000000 640.000000"
 preserveAspectRatio="xMidYMid meet">
<metadata>
Created by potrace 1.14, written by Peter Selinger 2001-2017
</metadata>
<g transform="translate(0.000000,640.000000) scale(0.100000,-0.100000)"
fill="#000000" stroke="none">
<path d="M3192 6385 c-106 -46 -139 -182 -69 -277 54 -73 174 -88 245 -30 55
44 71 79 67 151 -2 48 -8 68 -30 97 -50 65 -141 90 -213 59z"/>
<path d="M3615 6161 c-36 -15 -58 -49 -63 -99 -4 -43 -1 -53 26 -84 27 -30 38
-35 81 -37 45 -2 53 1 85 34 33 32 35 39 32 86 -2 45 -7 56 -37 80 -35 29 -82
37 -124 20z"/>
<path d="M3635 5875 c-25 -7 -47 -12 -48 -12 -1 0 -19 -8 -39 -17 -85 -40
-166 -140 -184 -226 -5 -19 -8 -67 -8 -105 0 -176 147 -330 325 -339 38 -2 83
3 109 11 25 8 51 15 58 15 6 1 12 5 12 10 0 4 6 8 14 8 19 0 98 77 128 125 44
70 60 165 45 265 -5 35 -59 128 -95 165 -33 33 -93 76 -112 79 -3 1 -10 5 -17
9 -26 16 -142 23 -188 12z"/>
<path d="M4553 5420 c-101 -23 -159 -119 -133 -222 35 -138 208 -177 303 -69
36 41 45 66 42 121 -2 57 -15 88 -51 124 -44 44 -101 60 -161 46z"/>
<path d="M2857 5315 c-52 -18 -117 -64 -130 -92 -6 -13 -13 -23 -18 -23 -9 0
-39 -75 -39 -98 0 -16 -8 -14 -67 14 -38 18 -84 36 -103 39 -228 40 -449 -105
-504 -331 -14 -55 -15 -162 -3 -209 31 -120 99 -213 202 -277 48 -30 122 -56
152 -53 28 2 20 -11 -19 -31 -51 -26 -158 -128 -158 -152 -1 -22 -39 -51 -74
-56 -22 -4 -45 -11 -53 -17 -7 -6 -13 -8 -13 -5 0 4 -28 -8 -62 -26 -72 -37
-204 -163 -214 -202 -3 -14 -10 -26 -14 -26 -6 0 -39 -82 -56 -138 -3 -9 -16
-6 -52 12 -47 24 -126 50 -187 61 -36 7 -170 7 -205 0 -126 -24 -202 -55 -295
-121 -107 -74 -137 -115 -179 -244 -21 -63 -39 -122 -41 -130 -2 -8 -9 -37
-15 -65 -19 -81 -21 -89 -24 -115 -2 -14 -7 -41 -10 -60 -14 -79 -16 -99 -23
-180 -9 -101 -9 -443 1 -518 3 -29 11 -83 16 -120 6 -37 13 -80 15 -97 3 -16
7 -41 10 -55 3 -14 8 -35 10 -47 3 -13 7 -33 10 -45 14 -67 83 -266 126 -366
140 -327 312 -575 583 -844 54 -54 101 -98 105 -98 3 0 24 -17 46 -36 22 -20
60 -50 85 -67 25 -17 47 -34 50 -37 12 -15 224 -145 285 -175 22 -11 42 -23
43 -27 2 -5 8 -8 12 -8 5 0 37 -13 72 -29 113 -52 309 -122 378 -135 14 -3 34
-7 45 -10 51 -13 166 -36 201 -41 21 -3 49 -8 60 -10 85 -19 440 -26 569 -12
137 15 132 14 230 33 155 29 328 81 320 95 -4 5 0 6 8 3 8 -3 40 5 73 18 32
12 64 23 69 24 21 3 183 80 270 128 83 45 263 160 275 175 3 4 37 31 75 61
145 113 343 313 425 430 14 19 31 41 38 48 32 35 152 228 203 327 58 113 167
373 175 418 1 4 2 8 4 10 1 1 3 9 5 18 1 9 10 41 18 70 8 30 21 81 28 114 7
33 14 67 16 75 4 18 21 136 31 205 3 28 6 149 6 270 0 197 -4 262 -19 345 -3
14 -7 48 -11 75 -3 28 -8 53 -10 56 -2 3 -6 19 -8 35 -7 35 -11 55 -26 118
-16 71 -97 310 -127 375 -53 117 -120 248 -156 304 -20 31 -37 62 -37 67 0 6
-4 10 -10 10 -5 0 -10 4 -10 10 0 14 -92 140 -102 140 -5 0 -7 4 -4 9 3 5 0
14 -7 19 -10 9 -28 -3 -75 -48 -34 -32 -62 -61 -62 -65 0 -3 -9 -15 -19 -27
-25 -26 -88 -153 -104 -209 -12 -42 -16 -45 -77 -67 -115 -39 -259 -112 -268
-134 -2 -4 -8 -8 -14 -8 -25 0 -211 -176 -238 -226 -10 -17 -4 -32 34 -97 25
-43 53 -94 62 -115 9 -20 21 -48 27 -62 5 -14 11 -27 12 -30 1 -3 7 -18 14
-35 22 -52 59 -208 67 -281 14 -140 7 -317 -17 -422 -6 -26 -13 -57 -15 -69
-14 -70 -118 -323 -136 -331 -5 -2 -6 -7 -3 -12 3 -4 -2 -13 -10 -20 -8 -7
-15 -17 -15 -22 0 -5 -4 -14 -10 -21 -5 -7 -33 -43 -62 -82 -115 -155 -300
-306 -483 -395 -78 -38 -208 -85 -259 -94 -46 -8 -66 -17 -61 -26 3 -5 1 -12
-5 -15 -6 -4 -9 -1 -8 7 2 8 -5 12 -17 11 -211 -26 -414 -18 -566 21 -313 82
-578 267 -756 531 -126 187 -204 383 -229 575 -3 25 -7 56 -10 70 -13 74 -1
323 21 420 3 14 8 34 10 46 17 77 122 331 157 379 4 6 36 48 69 95 74 101 168
197 264 268 39 28 75 56 82 62 22 18 232 120 247 120 9 0 16 5 16 12 0 6 3 9
6 5 4 -3 23 0 43 8 39 15 111 35 151 41 14 2 35 6 47 9 45 10 131 18 208 18
85 1 234 -11 248 -20 5 -3 23 -7 40 -9 18 -1 59 -12 92 -23 33 -11 65 -21 72
-21 30 0 302 -143 323 -169 3 -3 12 -10 22 -16 9 -5 35 -25 58 -44 l42 -34 -5
104 c-3 57 -10 121 -16 142 -13 52 -53 151 -64 158 -5 3 -7 9 -5 12 1 4 -5 16
-14 27 -10 11 -18 24 -18 29 0 5 -7 14 -15 21 -21 18 -18 23 42 63 49 33 54
34 68 19 119 -131 239 -190 398 -196 160 -6 286 44 403 159 172 169 212 414
105 639 -28 61 -43 81 -104 145 -160 167 -425 206 -642 93 -52 -26 -77 -46
-134 -105 -44 -46 -85 -104 -97 -138 -5 -14 -13 -13 -66 8 -59 24 -134 31
-202 18 -85 -17 -193 -103 -232 -185 -37 -77 -40 -93 -39 -170 l1 -75 -71 1
c-57 0 -131 -13 -220 -40 -37 -11 -112 -53 -163 -90 l-59 -44 -29 32 c-56 63
-167 122 -240 128 -13 1 -24 4 -24 5 0 1 19 12 42 24 85 44 173 154 208 264
19 57 20 146 4 173 -8 12 -10 22 -4 22 5 0 10 -4 10 -8 0 -13 110 -20 161 -9
46 9 105 45 139 83 160 183 45 460 -195 470 -33 1 -77 -3 -98 -11z m-109 -480
c-3 -3 -9 2 -12 12 -6 14 -5 15 5 6 7 -7 10 -15 7 -18z m762 -4240 c0 -5 -5
-3 -10 5 -5 8 -10 20 -10 25 0 6 5 3 10 -5 5 -8 10 -19 10 -25z m60 -95 c0 -5
-2 -10 -4 -10 -3 0 -8 5 -11 10 -3 6 -1 10 4 10 6 0 11 -4 11 -10z m41 -67
c13 -16 12 -17 -3 -4 -10 7 -18 15 -18 17 0 8 8 3 21 -13z m30 -40 c13 -16 12
-17 -3 -4 -10 7 -18 15 -18 17 0 8 8 3 21 -13z m33 -39 c3 -8 2 -12 -4 -9 -6
3 -10 10 -10 16 0 14 7 11 14 -7z m60 -60 c5 -14 4 -15 -9 -4 -17 14 -19 20
-6 20 5 0 12 -7 15 -16z m34 -39 c-3 -3 -9 2 -12 12 -6 14 -5 15 5 6 7 -7 10
-15 7 -18z m37 -25 c10 -11 16 -20 13 -20 -3 0 -13 9 -23 20 -10 11 -16 20
-13 20 3 0 13 -9 23 -20z m98 -69 c7 -8 -7 -2 -30 14 -24 15 -43 30 -43 32 0
7 61 -31 73 -46z"/>
<path d="M1782 4844 c-91 -38 -61 -173 39 -174 84 0 119 124 48 169 -32 19
-51 20 -87 5z"/>
<path d="M1712 4520 c-69 -31 -99 -72 -107 -146 -20 -174 195 -268 308 -135
119 142 -34 356 -201 281z"/>
<path d="M2910 4482 c-22 -8 -50 -42 -57 -71 -4 -16 1 -38 13 -60 49 -89 183
-42 167 59 -8 51 -75 90 -123 72z"/>
</g>
</svg>
